<?xml version="1.0" encoding="UTF-8" standalone="no"?>
<svg
   ffdec:objectType="frame"
   height="60.549999"
   width="67.099998"
   version="1.1"
   id="svg8"
   sodipodi:docname="29.svg"
   xmlns:inkscape="http://www.inkscape.org/namespaces/inkscape"
   xmlns:sodipodi="http://sodipodi.sourceforge.net/DTD/sodipodi-0.dtd"
   xmlns:xlink="http://www.w3.org/1999/xlink"
   xmlns="http://www.w3.org/2000/svg"
   xmlns:svg="http://www.w3.org/2000/svg"
   xmlns:ffdec="https://www.free-decompiler.com/flash">
  <sodipodi:namedview
     id="namedview8"
     pagecolor="#ffffff"
     bordercolor="#000000"
     borderopacity="0.25"
     inkscape:showpageshadow="2"
     inkscape:pageopacity="0.0"
     inkscape:pagecheckerboard="0"
     inkscape:deskcolor="#d1d1d1"
     fit-margin-top="5"
     fit-margin-left="5"
     fit-margin-right="5"
     fit-margin-bottom="5" />
  <g
     transform="translate(1.5,1.5)"
     id="g3">
    <use
       ffdec:characterId="516"
       height="57.549999"
       width="64.099998"
       xlink:href="#shape0"
       id="use1" />
    <use
       ffdec:characterId="545"
       height="51.400002"
       transform="translate(0,5.7)"
       width="64"
       xlink:href="#shape1"
       id="use2" />
    <use
       ffdec:characterId="518"
       height="60.549999"
       transform="translate(-1.5,-1.5)"
       width="67.099998"
       xlink:href="#shape2"
       id="use3" />
  </g>
  <defs
     id="defs8">
    <g
       id="shape0">
      <path
         d="M 53.6,0 H 64.1 V 57.55 H 53.6 28.25 0 V 0 H 28.25 53.6 V 57.55 0 M 28.25,0 V 57.55 0"
         fill="#ffffff"
         fill-rule="evenodd"
         stroke="none"
         id="path3" />
    </g>
    <g
       id="shape1"
       transform="translate(0,-5.7)">
      <path
         d="m 30.1,16.75 q 3.7,3.4 4.55,8.5 l 0.05,0.2 0.65,2.6 q 0.5,2.95 -0.2,6 -0.75,3.15 -2.6,5.75 -2.5,3.5 -6.8,5.95 l -2.55,1.4 2.5,4.85 q 1.25,2.25 0.8,3.75 L 23.25,57.1 H 0 V 56.45 L 0.2,56.15 0,55.9 V 52.95 L 1.6,50.45 3.35,47.9 4,47.05 3.85,46.95 Q 2.55,46 1.2,44.45 L 0,43.2 V 18.9 l 1.9,-0.5 q 2,-2.05 4.55,-3.55 2.25,-1.3 4.95,-2.25 l 2.8,-0.75 1.55,-2.1 1.9,-2.25 1,-1.25 Q 19.2,5.8 19.8,5.75 l 1.15,0.15 0.8,0.8 3.35,4.5 2.6,3.9 2.4,1.65"
         fill="#000000"
         fill-rule="evenodd"
         stroke="none"
         id="path4" />
      <path
         d="M 31.65,23.45 33.5,21.2 q 0.35,-0.35 0.75,-0.6 l 0.7,-0.85 1.35,-1.45 2.9,-2.85 q 1.75,-1.4 3.55,-1.9 1.75,-0.45 3.6,0.05 1.4,0.45 2.15,1.2 1,1.1 0.85,2.2 -0.05,1.5 -1.75,2.45 l -2.95,0.95 -3.6,0.65 q -1.4,0.45 -2.6,1.2 l -1.05,0.65 -0.95,0.9 -2.05,1.15 -0.6,0.1 -0.85,0.6 q -1.2,1.05 -4,2.8 L 28.3,28.6 q -0.35,-0.25 0.15,-0.8 l 2.5,-3.35 0.5,-0.75 0.2,-0.25 m 6,9.05 3.75,-0.65 1.4,0.05 q 0.8,0.1 1.3,0.7 0.55,0.65 0.6,1.4 0,0.8 -0.55,1.4 l -1.45,0.85 -1.3,-0.1 -1.25,-0.3 -0.9,-0.2 -0.85,-0.3 -0.85,-0.05 -3.25,-0.05 -1.55,0.2 -0.5,-0.15 q -0.4,-0.25 0,-0.75 0.2,-0.25 0.9,-0.4 l 0.9,-0.25 1,-0.65 2.6,-0.75 m 2.3,-8.15 q 2.6,-1 5.2,-1.5 l 0.7,-0.3 Q 47.7,21.9 51.5,21.3 l 4.05,-0.45 q 2.2,-0.05 3.9,0.6 2.75,1.1 3.95,3.7 1.2,2.7 0,5.4 -0.8,1.7 -2.95,3.3 L 57.8,35.3 q -1.75,0.55 -4.15,0 l -3.7,-0.55 q -2.6,-0.8 -5.7,-2.8 -2.1,-1.45 -3.4,-1.85 l -1.5,0.1 -3.2,0.65 -2.2,0.6 -1.55,0.15 -0.8,0.25 -0.7,0.05 q -0.6,-0.25 -0.45,-0.95 0.05,-0.3 0.65,-1.05 3.1,-3.55 8.85,-5.55 m 17.4,-7.4 0.5,0.55 0.2,0.45 0.1,0.55 q 0,0.5 -0.4,0.95 -1.15,1.15 -2.5,0.7 L 54.75,20 52.95,19.95 h -1 l -0.55,0.1 -1.7,0.3 -0.6,-0.15 q -0.15,-0.2 0,-0.45 l 0.35,-0.35 1.15,-0.55 1.05,-0.45 1.6,-0.75 0.35,-0.3 1,-0.35 1.4,-0.3 1.35,0.25"
         fill="#999999"
         fill-rule="evenodd"
         stroke="none"
         id="path5" />
      <path
         d="m 31.65,23.45 -0.2,0.25 -0.7,0.4 -2.45,0.3 -1.55,0.45 -0.75,0.4 -0.7,0.15 q -0.7,-0.05 -0.95,-0.65 -0.1,-0.65 0.5,-1.2 l 0.15,-0.2 1.55,-0.85 0.65,-0.35 0.55,-0.05 2.4,-0.45 h 0.2 l 0.3,-0.1 q 0.75,0.15 1.1,0.8 0.15,0.6 -0.1,1.1 M 2.8,29.25 q -1.2,0.1 -2,-0.4 Q 0.25,28.6 0,28.2 v -2.1 l 0.8,-0.9 q 0.55,-0.4 1.65,-0.65 l 1.75,-0.5 1.2,-0.5 Q 6.3,23.1 8.25,22.6 l 1.3,-0.2 q 0.75,0.05 1.05,0.45 l 0.2,0.8 -0.2,1 -0.35,-0.2 -2,-0.4 q -1.7,0 -2.85,0.75 l -1.2,1.05 q -0.8,0.8 -1.05,1.3 -0.3,0.7 -0.35,2.1 M 13,28.2 l 0.45,0.25 0.85,1.25 q 0.25,0.8 -0.05,1.55 l -1.15,1.2 q -0.75,0.4 -1.4,0.4 0.8,-0.8 1.15,-2.05 Q 13.3,29.5 13,28.2 M 6,34.4 5.5,34.35 4.95,34 6,34.4 M 5.4,28.7 Q 5.5,27.7 6.25,26.95 7,26.2 7.95,26.1 8.9,25.95 9.8,26.5 q 0.9,0.5 1.25,1.4 0.35,0.95 0.05,1.95 -0.3,1 -1.1,1.55 L 6.85,31.5 Q 6.15,31.1 5.75,30.3 5.35,29.55 5.4,28.7 m 13.2,20.9 q -0.15,-0.75 0.05,-1.75 0.1,-0.9 0.35,-1.2 0.3,-0.4 0.8,-0.5 l 0.95,0.15 0.2,0.2 0.95,-0.05 1.1,0.6 1.95,2.5 1.75,2.75 0.65,1.8 0.2,0.8 -0.1,0.9 -0.3,1.15 -0.05,0.15 h -5.15 l -2.35,-5.5 -1,-2 m 5.55,-16.55 1.15,1.4 0.25,0.45 q 0.75,1.55 0.55,2.6 -0.4,1.3 -1.8,1.8 l -0.85,0.05 q -0.7,0 -1.25,-0.6 -0.6,-0.6 -0.95,-1.95 V 36.7 L 21.2,36.45 21.1,36.25 21,36.05 20.75,34.5 20.7,33.4 q 0.05,-0.45 0.25,-0.75 l 0.5,-0.6 q 0.3,-0.25 0.6,-0.2 h 0.45 l 0.75,0.4 0.4,0.25 0.5,0.55"
         fill="#000000"
         fill-rule="evenodd"
         stroke="none"
         id="path6" />
      <path
         d="M 24.85,23.55 24.4,23.2 q -1.65,-1.3 -1.15,-3.25 0.25,-0.95 1,-1.65 0.65,-0.75 1.65,-1.1 1.8,-0.6 3.3,0.4 1.55,0.95 1.5,2.7 l -0.35,1.35 h -0.2 l -2.4,0.45 -0.55,0.05 -0.65,0.35 -1.55,0.85 -0.15,0.2 M 2.8,29.25 q 0.05,-1.4 0.35,-2.1 0.25,-0.5 1.05,-1.3 L 5.4,24.8 q 1.15,-0.75 2.85,-0.75 l 2,0.4 0.35,0.2 q 1.5,0.85 2.15,2.75 L 13,28.2 q 0.3,1.3 -0.15,2.6 -0.35,1.25 -1.15,2.05 L 10.85,33.5 Q 10.4,33.85 9.5,34.1 L 6.9,34.45 6,34.4 4.95,34 4.85,33.95 Q 4.1,33.45 3.5,32.55 l -0.6,-1.1 q -0.15,-0.5 -0.15,-1.5 l 0.05,-0.7 m 21.6,-1.45 1.6,1.1 1.5,1.7 1.65,3 0.7,2.25 q 0.4,2.3 -0.95,4.5 -1.55,2.25 -4.05,2.75 l -1.95,0.15 q -2.05,-0.2 -3.55,-2.1 -1.1,-1.4 -1.75,-3.65 L 17.15,35.75 17.1,34.2 17.45,31.1 q 0.55,-1.95 1.3,-2.85 l -0.4,-1.2 -0.45,-1.1 Q 17.6,25.25 17.8,24.75 18,24.3 18.55,24 l 1.1,-0.1 q 0.55,0.2 0.9,0.75 0.55,0.8 0.95,2.35 1.35,-0.1 2.9,0.8 m -19,0.9 q -0.05,0.85 0.35,1.6 0.4,0.8 1.1,1.2 L 10,31.4 q 0.8,-0.55 1.1,-1.55 0.3,-1 -0.05,-1.95 Q 10.7,27 9.8,26.5 8.9,25.95 7.95,26.1 7,26.2 6.25,26.95 5.5,27.7 5.4,28.7 m 18.75,4.35 -0.5,-0.7 Q 22.85,31.2 21.5,30.7 l -0.1,0.15 q -0.35,0.65 -0.45,1.8 -0.2,0.3 -0.25,0.75 l 0.05,1.1 0.25,1.55 0.1,0.2 0.1,0.4 0.05,0.05 v 0.1 q 0.35,1.35 0.95,1.95 0.55,0.6 1.25,0.6 L 24.3,39.3 q 1.4,-0.5 1.8,-1.8 0.2,-1.05 -0.55,-2.6 l -0.25,-0.45 -1.15,-1.4"
         fill="#ffffff"
         fill-rule="evenodd"
         stroke="none"
         id="path7" />
    </g>
    <g
       id="shape2"
       transform="translate(1.5,1.5)">
      <path
         d="M 0,23.8 V 0 H 64.1 V 23.8 57.55 H 0 Z"
         fill="none"
         stroke="#000000"
         stroke-linecap="round"
         stroke-linejoin="round"
         stroke-width="3"
         id="path8" />
    </g>
  </defs>
</svg>
