<?xml version="1.0" encoding="UTF-8" standalone="no"?>
<svg xmlns:ffdec="https://www.free-decompiler.com/flash" xmlns:xlink="http://www.w3.org/1999/xlink" ffdec:objectType="frame" height="125.3px" width="142.7px" xmlns="http://www.w3.org/2000/svg">
  <g transform="matrix(2.0, 0.0, 0.0, 2.0, 6.9, 5.0)">
    <use ffdec:characterId="516" height="57.55" transform="matrix(1.0, 0.0, 0.0, 1.0, 0.0, 0.0)" width="64.1" xlink:href="#shape0"/>
    <use ffdec:characterId="557" height="59.2" transform="matrix(1.0, 0.0, 0.0, 1.0, 0.0, 0.0)" width="65.45" xlink:href="#shape1"/>
    <use ffdec:characterId="518" height="60.55" transform="matrix(1.0, 0.0, 0.0, 1.0, 0.0, 0.0)" width="67.1" xlink:href="#shape2"/>
  </g>
  <defs>
    <g id="shape0">
      <path d="M53.6 0.0 L64.1 0.0 64.1 57.55 53.6 57.55 28.25 57.55 0.0 57.55 0.0 0.0 28.25 0.0 53.6 0.0 53.6 57.55 53.6 0.0 M28.25 0.0 L28.25 57.55 28.25 0.0" fill="#ffffff" fill-rule="evenodd" stroke="none"/>
    </g>
    <g id="shape1">
      <path d="M12.1 29.35 L12.05 30.25 12.1 31.0 12.4 37.55 20.1 34.7 Q22.1 34.0 23.25 34.0 L24.15 34.2 Q24.6 34.45 24.7 34.95 24.7 35.4 24.05 35.95 L23.75 36.15 Q24.25 36.3 24.45 36.8 24.7 37.3 24.55 37.75 24.45 38.15 23.75 38.8 22.15 40.15 19.9 41.35 L15.7 43.4 14.5 44.0 13.8 44.55 6.75 49.3 5.7 50.45 Q4.95 51.1 4.3 51.35 L3.55 51.5 2.95 52.7 Q2.2 53.55 1.05 53.45 -0.15 53.3 -0.7 52.25 L-1.0 50.7 -0.8 49.05 Q-0.55 47.45 -0.55 44.4 L-0.35 39.7 -0.05 36.7 -0.25 34.05 -0.2 31.5 -0.05 28.95 0.0 25.85 Q0.1 24.1 0.55 22.9 0.75 22.35 1.15 22.1 L-0.1 16.15 Q-0.3 15.2 -0.1 14.75 0.0 14.4 0.4 14.25 L1.0 14.35 1.3 14.85 1.85 16.7 3.1 21.25 3.95 25.85 5.25 33.55 Q7.5 31.2 9.5 29.55 10.25 28.9 10.8 28.8 11.75 28.6 12.1 29.35 M32.75 41.0 Q33.25 41.15 33.35 41.7 L33.15 42.5 33.15 42.55 32.85 43.35 29.55 49.55 32.65 49.5 Q33.65 49.6 33.9 50.0 L33.95 50.8 33.6 51.5 33.2 52.25 32.6 53.35 32.5 53.75 33.8 53.7 35.65 54.05 38.25 54.55 41.25 54.65 Q47.65 54.85 51.35 55.7 52.25 55.95 52.2 56.45 52.15 56.95 51.2 56.95 L50.35 56.95 50.2 57.1 Q48.7 57.95 46.1 57.85 L38.3 57.15 29.2 57.25 27.55 57.4 26.5 57.9 22.3 57.9 Q21.15 57.55 20.6 57.15 19.55 56.3 19.65 54.9 19.7 54.2 20.35 52.8 22.9 48.15 26.65 43.2 28.7 40.55 30.4 40.7 31.15 40.8 31.75 41.3 32.2 40.85 32.75 41.0" fill="#767676" fill-rule="evenodd" stroke="none"/>
      <path d="M48.85 36.65 Q47.5 38.15 45.75 39.3 44.65 40.25 43.25 41.05 40.3 42.7 35.85 43.3 32.7 43.75 30.5 43.3 L29.15 43.8 29.1 43.85 27.4 45.7 27.0 46.25 Q24.35 50.1 23.4 51.8 L22.25 53.95 20.95 56.0 Q20.25 57.1 19.4 57.4 18.2 57.9 17.25 57.1 L16.7 57.9 2.55 57.9 2.15 57.85 Q0.25 57.55 -0.25 56.2 -0.6 55.1 0.1 53.95 L1.7 52.2 7.05 47.7 Q11.75 43.9 21.3 37.85 19.55 35.55 19.05 32.3 18.45 28.6 19.65 23.95 20.4 21.1 21.6 18.8 L21.65 7.15 21.65 7.1 21.3 6.95 20.0 5.85 19.3 5.15 Q18.85 4.55 18.85 3.15 L19.05 1.55 Q19.45 0.45 21.0 -0.5 L22.5 -1.15 Q24.15 -1.6 25.7 -0.85 27.25 -0.05 27.85 1.5 28.35 2.8 28.1 4.4 L27.35 7.25 26.0 11.4 25.8 11.95 25.8 12.1 26.15 11.7 26.45 11.3 28.65 8.55 30.85 5.7 32.1 4.05 Q32.95 3.3 34.15 3.15 35.4 3.05 36.25 3.75 L37.25 4.95 38.7 7.25 Q42.05 7.45 45.3 8.95 48.05 10.25 49.75 12.05 L54.4 12.75 Q55.85 12.95 56.45 13.3 57.6 13.85 57.75 14.9 L57.3 16.7 52.9 26.3 52.8 26.95 53.95 26.35 55.75 25.2 57.15 23.65 Q58.9 21.8 61.3 22.2 62.45 22.4 63.3 23.2 64.2 24.05 64.4 25.15 64.6 26.25 64.0 27.3 63.5 28.35 62.5 28.95 L60.95 29.65 59.35 30.15 Q56.95 30.85 54.0 32.2 53.25 32.55 50.85 33.8 L48.85 36.65 M51.3 25.0 L51.55 24.45 Q50.0 24.45 49.35 23.05 L49.05 22.45 48.75 22.05 48.45 21.35 48.3 20.45 48.45 19.65 48.7 18.6 48.9 18.05 47.3 17.85 46.15 17.95 45.05 18.35 Q43.05 19.4 42.35 21.45 41.6 23.55 42.55 25.55 43.3 26.95 44.5 27.6 L47.25 27.8 48.4 27.25 49.3 26.85 50.15 26.35 51.3 25.0 M33.05 21.4 L34.25 21.05 35.15 20.5 35.95 19.8 36.6 18.7 37.05 17.3 37.0 16.3 36.85 15.3 Q36.55 14.2 35.7 13.5 33.0 15.75 30.3 16.0 L28.55 15.9 27.75 15.5 27.35 16.25 27.15 17.0 27.1 18.35 Q27.35 20.2 29.35 21.1 L33.05 21.4 M32.25 30.95 L32.75 31.1 32.9 31.65 Q32.8 33.3 33.0 33.75 L33.7 34.55 Q34.35 35.0 35.25 34.95 L36.75 34.4 Q37.85 33.65 38.7 31.8 39.35 30.3 39.3 29.0 L39.15 27.9 Q38.9 26.7 38.45 26.05 L38.25 25.8 38.65 25.25 39.25 24.75 Q39.65 24.4 39.7 23.85 39.85 22.75 38.95 22.1 L37.05 22.0 Q36.2 22.45 35.6 24.1 L35.55 24.3 34.65 24.2 Q32.85 24.15 30.4 25.4 29.05 26.05 28.3 26.85 L27.5 28.0 Q26.85 28.9 26.8 29.7 26.75 30.45 27.3 31.1 27.8 31.75 28.55 31.8 L30.4 31.45 32.25 30.95" fill="#000000" fill-rule="evenodd" stroke="none"/>
      <path d="M51.3 25.0 L50.15 26.35 49.3 26.85 48.4 27.25 47.25 27.8 44.5 27.6 Q43.3 26.95 42.55 25.55 41.6 23.55 42.35 21.45 43.05 19.4 45.05 18.35 L46.15 17.95 47.3 17.85 48.9 18.05 48.7 18.6 48.45 19.65 48.3 20.45 48.45 21.35 48.75 22.05 49.05 22.45 49.35 23.05 Q50.0 24.45 51.55 24.45 L51.3 25.0 M33.05 21.4 L29.35 21.1 Q27.35 20.2 27.1 18.35 L27.15 17.0 27.35 16.25 27.75 15.5 28.55 15.9 30.3 16.0 Q33.0 15.75 35.7 13.5 36.55 14.2 36.85 15.3 L37.0 16.3 37.05 17.3 36.6 18.7 35.95 19.8 35.15 20.5 34.25 21.05 33.05 21.4 M32.25 30.95 L30.4 31.45 28.55 31.8 Q27.8 31.75 27.3 31.1 26.75 30.45 26.8 29.7 26.85 28.9 27.5 28.0 L28.3 26.85 Q29.05 26.05 30.4 25.4 32.85 24.15 34.65 24.2 L35.55 24.3 35.6 24.1 Q36.2 22.45 37.05 22.0 L38.95 22.1 Q39.85 22.75 39.7 23.85 39.65 24.4 39.25 24.75 L38.65 25.25 38.25 25.8 38.45 26.05 Q38.9 26.7 39.15 27.9 L39.3 29.0 Q39.35 30.3 38.7 31.8 37.85 33.65 36.75 34.4 L35.25 34.95 Q34.35 35.0 33.7 34.55 L33.0 33.75 Q32.8 33.3 32.9 31.65 L32.75 31.1 32.25 30.95" fill="#ffffff" fill-rule="evenodd" stroke="none"/>
      <path d="M49.05 8.65 L48.1 8.7 Q47.85 8.5 47.75 7.8 47.75 6.8 48.2 5.8 47.8 5.35 47.75 4.7 47.65 4.0 48.0 3.45 48.3 2.95 48.95 2.7 L50.15 2.6 Q50.8 2.8 51.2 3.35 51.6 3.85 51.6 4.5 L51.05 6.15 Q50.15 8.15 49.05 8.65 M51.9 10.0 Q51.45 10.25 50.95 10.0 50.4 9.7 50.55 9.25 L51.0 8.55 52.9 6.85 53.7 6.3 Q55.05 5.55 57.1 6.0 L58.2 6.4 Q58.95 6.85 59.2 7.7 59.5 8.45 59.15 9.3 58.75 10.15 57.9 10.45 L56.35 10.4 54.85 9.95 53.3 9.65 52.5 9.7 51.9 10.0 M41.6 45.85 L41.25 45.4 Q40.5 45.1 40.25 44.8 39.95 44.35 40.4 43.9 40.65 43.6 41.25 43.5 L41.95 43.5 Q42.9 43.7 44.2 44.6 45.3 45.3 45.7 45.8 46.35 46.6 46.45 47.65 46.55 48.75 46.0 49.65 L45.75 50.0 45.25 50.4 43.2 50.5 Q42.1 50.1 41.8 49.0 41.6 48.25 41.95 47.25 L42.05 46.85 41.9 46.5 41.6 45.85 M20.3 14.65 L20.25 15.25 20.0 16.6 Q19.9 17.45 19.45 17.65 19.2 17.85 18.85 17.65 L18.45 17.2 18.4 16.65 18.25 15.95 17.95 15.15 Q17.5 14.35 16.45 13.55 L16.1 13.4 15.6 13.45 13.95 13.55 Q12.85 13.3 12.35 12.25 12.1 11.65 12.2 11.0 12.3 10.35 12.85 9.8 13.4 9.3 14.1 9.15 L16.85 9.4 17.75 9.85 18.4 10.45 19.65 12.35 20.15 13.55 20.3 14.65 M15.95 19.45 L17.25 20.85 17.55 21.65 17.3 22.4 16.0 22.45 15.3 21.95 13.85 21.45 13.25 21.4 Q13.0 21.45 12.7 21.85 L11.3 23.25 10.4 23.85 9.05 23.95 Q8.25 23.75 7.9 23.4 7.1 22.7 7.2 21.3 7.3 20.5 7.5 20.2 L8.15 19.4 Q9.75 18.1 11.95 18.2 L14.3 18.55 15.3 18.95 15.95 19.45 M34.7 47.7 L34.05 46.95 Q33.65 46.45 33.8 46.0 33.95 45.35 34.85 45.25 35.85 45.15 37.2 45.8 L38.45 46.65 39.3 48.0 39.6 48.6 39.8 50.3 39.75 51.1 39.5 51.75 Q39.0 52.8 37.95 53.25 L35.85 53.05 Q35.1 52.65 34.9 51.55 34.75 50.45 35.45 49.65 L35.65 49.35 35.6 49.1 34.7 47.7" fill="#767676" fill-rule="evenodd" stroke="none"/>
    </g>
    <g id="shape2">
      <path d="M0.0 23.8 L0.0 0.0 64.1 0.0 64.1 23.8 64.1 57.55 0.0 57.55 0.0 23.8 Z" fill="none" stroke="#000000" stroke-linecap="round" stroke-linejoin="round" stroke-width="3.0"/>
    </g>
  </defs>
</svg>
