<?xml version="1.0" encoding="UTF-8" standalone="no"?>
<svg xmlns:ffdec="https://www.free-decompiler.com/flash" xmlns:xlink="http://www.w3.org/1999/xlink" ffdec:objectType="frame" height="492.6px" width="525.45px" xmlns="http://www.w3.org/2000/svg">
  <g transform="matrix(3.0, 0.0, 0.0, 3.0, 261.0, 289.35)">
    <use ffdec:characterId="867" height="164.2" transform="matrix(1.0, 0.0, 0.0, 1.0, -87.0, -96.45)" width="175.15" xlink:href="#shape0"/>
  </g>
  <defs>
    <g id="shape0" transform="matrix(1.0, 0.0, 0.0, 1.0, 87.0, 96.45)">
      <path d="M-39.85 -14.35 Q-42.1 -14.35 -39.75 -14.55 L-39.65 -14.55 -39.85 -14.35 M-39.55 -15.05 L-39.65 -15.1 -39.85 -15.2 -38.25 -14.75 -38.2 -14.7 -38.25 -14.7 -38.25 -14.75 -38.45 -14.75 -38.65 -14.8 -38.7 -14.85 -38.85 -14.85 -38.95 -14.9 -39.1 -14.9 -39.15 -14.9 -39.25 -14.95 -39.5 -15.0 -39.55 -15.05 M-7.0 -35.9 L-6.9 -35.85 -7.05 -35.9 -7.0 -35.9 M-7.3 -35.95 L-7.25 -35.9 -7.35 -35.95 -7.3 -35.95" fill="#564d3d" fill-rule="evenodd" stroke="none"/>
      <path d="M-49.15 -46.3 L-49.2 -48.45 -48.15 -48.4 -49.05 -46.5 -49.15 -46.3" fill="#7c7661" fill-rule="evenodd" stroke="none"/>
      <path d="M9.5 1.75 L9.6 2.55 9.55 2.85 9.3 3.3 8.45 4.35 7.85 4.7 Q7.35 4.95 6.85 4.7 6.35 4.6 6.05 4.1 L5.6 2.7 5.55 2.6 5.55 1.45 5.65 1.15 6.4 0.55 6.65 0.6 7.2 1.0 Q7.65 0.7 8.0 0.7 9.0 0.6 9.4 1.5 L9.5 1.75" fill="#ffffff" fill-rule="evenodd" stroke="none"/>
      <path d="M36.25 -70.8 L36.75 -70.6 37.45 -70.3 41.0 -67.7 Q42.5 -66.15 43.35 -65.7 L44.35 -65.15 44.6 -65.0 44.9 -64.75 45.3 -64.7 46.3 -62.15 Q47.15 -59.75 47.8 -56.05 L48.4 -51.25 47.05 -52.0 Q45.8 -52.55 45.1 -52.5 L44.4 -52.25 46.65 -46.6 47.8 -43.95 47.95 -43.45 Q47.3 -40.5 45.85 -37.45 L45.75 -37.0 Q44.15 -31.05 41.05 -26.3 L41.05 -26.25 40.5 -26.4 39.75 -26.35 39.3 -26.15 Q38.85 -25.8 38.75 -25.3 38.75 -24.75 39.05 -24.4 L39.2 -24.3 39.3 -24.1 39.45 -24.0 37.7 -22.0 24.75 -20.7 Q3.15 -17.9 12.2 -17.15 21.3 -16.45 36.15 -16.55 L38.4 -16.55 38.7 -15.3 39.95 -10.5 Q41.0 -6.25 41.35 -2.3 L33.05 -1.35 Q11.45 1.45 20.5 2.2 L41.55 2.85 Q41.45 6.25 40.8 9.35 40.05 13.0 38.5 16.3 L31.5 17.1 Q9.85 19.85 18.95 20.6 L35.4 21.25 Q33.25 24.05 30.4 25.95 27.65 27.85 23.8 29.25 L16.7 31.35 Q9.35 33.35 5.15 33.7 1.65 34.05 -2.7 33.65 L-10.5 32.7 -17.4 31.55 Q-21.25 30.85 -24.15 29.95 -32.3 27.5 -36.15 22.65 L-37.1 21.25 -18.1 20.6 Q-9.05 19.85 -30.65 17.1 L-40.35 16.0 -40.65 15.15 -41.9 10.4 -43.25 2.85 Q-28.7 2.9 -19.65 2.2 -10.6 1.45 -32.2 -1.35 L-43.3 -2.55 Q-43.0 -5.85 -42.0 -9.0 L-41.25 -10.9 -40.5 -12.75 -40.3 -13.25 -42.3 -13.0 Q-41.15 -13.4 -40.05 -13.85 L-39.85 -14.35 -39.65 -14.55 -39.75 -14.55 -49.55 -14.6 Q-60.4 -14.7 -39.75 -14.6 L-39.7 -14.65 -45.3 -14.75 Q-70.35 -15.15 -44.8 -14.8 L-39.7 -14.75 -39.55 -15.05 -39.5 -15.0 -39.25 -14.95 -39.15 -14.9 -39.1 -14.9 -38.95 -14.9 -38.85 -14.85 -38.7 -14.85 -38.65 -14.8 -38.45 -14.75 -38.25 -14.75 -38.25 -14.7 -38.2 -14.7 -38.25 -14.75 -39.85 -15.2 -39.95 -15.3 -40.05 -15.35 -40.2 -15.4 -40.3 -15.5 -40.4 -15.6 -40.45 -15.7 -40.5 -15.75 -40.6 -15.85 -40.7 -15.95 -40.75 -16.0 -40.8 -16.1 -40.8 -16.2 -40.9 -16.25 -40.95 -16.35 -41.0 -16.45 -41.0 -16.5 -35.3 -16.55 Q-20.45 -16.45 -11.35 -17.15 -2.3 -17.9 -23.95 -20.7 L-37.45 -22.05 -36.85 -24.65 -36.05 -26.75 -37.15 -27.4 Q-43.8 -31.4 -46.2 -35.65 -47.45 -37.75 -48.25 -40.85 L-48.55 -42.0 -48.1 -42.1 Q-47.65 -42.25 -47.3 -42.9 L-46.95 -43.95 -45.85 -46.6 -43.55 -52.25 -44.3 -52.5 -46.2 -52.0 -47.9 -51.1 -48.85 -50.4 -49.15 -50.0 -48.6 -54.15 Q-47.3 -59.7 -43.95 -63.85 L-43.8 -65.0 -43.5 -65.15 -42.55 -65.7 Q-41.7 -66.15 -40.15 -67.7 L-36.6 -70.3 Q-36.05 -68.6 -35.8 -66.25 L-35.6 -64.3 Q-34.85 -63.4 -34.0 -61.7 L-29.7 -53.75 -29.35 -53.45 -29.0 -53.65 Q-28.1 -53.95 -27.05 -53.65 -26.15 -53.4 -25.4 -52.65 -24.5 -51.9 -23.1 -49.5 L-20.0 -44.45 -15.35 -39.6 -10.3 -42.85 Q-5.6 -45.1 0.45 -45.85 L11.15 -45.4 Q15.3 -44.25 17.85 -41.65 25.0 -47.75 29.9 -52.65 L30.25 -53.0 32.65 -57.75 35.05 -62.7 Q35.9 -64.2 36.75 -65.1 L36.75 -66.0 Q36.8 -66.85 37.0 -67.55 L36.5 -69.15 Q36.25 -69.95 36.25 -70.8 M32.85 -48.85 L32.35 -48.8 32.05 -48.3 32.15 -48.0 32.35 -47.4 37.55 -44.75 33.9 -53.0 33.75 -52.6 33.75 -52.2 33.65 -52.15 32.65 -49.55 32.85 -48.85 M32.85 -36.65 Q30.3 -38.5 29.5 -38.85 L28.85 -39.25 28.6 -39.2 28.15 -37.65 27.85 -36.95 27.2 -35.55 Q30.85 -34.6 36.5 -33.95 L32.85 -36.65 M10.65 -35.7 Q6.2 -35.25 4.6 -34.4 3.0 -33.65 4.95 -33.5 L13.15 -33.4 19.95 -33.15 20.6 -33.0 20.75 -33.1 20.9 -33.3 21.05 -33.5 21.1 -33.65 21.2 -33.8 21.2 -33.95 21.25 -34.15 21.25 -34.35 21.2 -34.45 21.2 -34.6 21.1 -34.8 21.05 -35.0 21.0 -35.15 20.8 -35.3 20.6 -35.5 20.35 -35.6 20.25 -35.7 19.9 -35.75 19.5 -35.95 19.1 -36.1 18.5 -36.2 18.05 -36.25 16.95 -36.25 15.45 -36.15 10.65 -35.7 M9.5 1.75 L9.4 1.5 Q9.0 0.6 8.0 0.7 7.65 0.7 7.2 1.0 L6.65 0.6 6.4 0.55 5.65 1.15 5.55 1.45 5.55 2.6 5.6 2.7 6.05 4.1 Q6.35 4.6 6.85 4.7 7.35 4.95 7.85 4.7 L8.45 4.35 9.3 3.3 9.55 2.85 9.6 2.55 9.5 1.75 M-32.05 -48.85 L-31.8 -49.55 -32.85 -52.15 -32.95 -52.2 -32.95 -52.6 -33.05 -53.0 -36.75 -44.75 -31.55 -47.4 -31.3 -48.0 -31.25 -48.3 -31.5 -48.8 -32.05 -48.85 M-9.8 -35.7 L-14.65 -36.15 -16.15 -36.25 -17.25 -36.25 -17.7 -36.2 -18.3 -36.1 -18.7 -35.95 -19.1 -35.75 -19.4 -35.7 -19.55 -35.6 -19.75 -35.5 -20.0 -35.3 -20.15 -35.15 -20.2 -35.0 -20.3 -34.8 -20.4 -34.6 -20.4 -34.45 -20.45 -34.35 -20.45 -34.15 -20.4 -33.95 -20.4 -33.8 -20.3 -33.65 -20.2 -33.5 -20.05 -33.3 -19.95 -33.1 -19.75 -33.0 -19.15 -33.15 -12.3 -33.4 -4.1 -33.5 Q-2.2 -33.65 -3.75 -34.4 -5.35 -35.25 -9.8 -35.7 M-7.3 -35.95 L-7.35 -35.95 -7.25 -35.9 -7.3 -35.95 M-7.0 -35.9 L-7.05 -35.9 -6.9 -35.85 -7.0 -35.9 M-32.05 -36.65 L-35.65 -33.95 Q-30.0 -34.6 -26.4 -35.55 L-27.0 -36.95 -27.35 -37.65 -27.8 -39.2 -27.95 -39.25 Q-27.95 -39.2 -28.7 -38.85 L-32.05 -36.65 M-42.3 -13.0 L-40.2 -13.5 -40.1 -13.75 -42.3 -13.0" fill="#362a1e" fill-rule="evenodd" stroke="none"/>
      <path d="M36.25 -70.8 Q35.8 -71.1 35.65 -71.3 35.4 -71.75 35.65 -72.25 35.8 -72.7 36.3 -72.95 L37.8 -73.25 39.5 -73.6 Q40.5 -73.55 41.2 -72.95 L41.9 -72.2 42.75 -71.1 43.35 -69.65 44.3 -68.65 45.15 -66.85 45.4 -66.0 45.65 -65.45 Q45.8 -65.05 45.55 -64.85 L45.3 -64.7 44.9 -64.75 44.6 -65.0 44.35 -65.15 43.35 -65.7 Q42.5 -66.15 41.0 -67.7 L37.45 -70.3 36.75 -70.6 36.25 -70.8 M48.4 -51.25 L48.75 -51.1 49.7 -50.4 50.0 -50.0 50.35 -49.55 Q50.55 -48.9 50.15 -48.55 L50.05 -48.45 48.95 -48.4 49.9 -46.5 50.0 -46.3 50.5 -45.0 50.75 -43.5 Q50.75 -42.7 50.2 -42.3 49.8 -42.0 49.35 -42.0 L48.9 -42.1 Q48.45 -42.25 48.15 -42.9 L47.95 -43.45 47.8 -43.95 46.65 -46.6 44.4 -52.25 45.1 -52.5 Q45.8 -52.55 47.05 -52.0 L48.4 -51.25 M37.7 -22.0 L38.3 -22.05 38.7 -20.5 38.95 -19.6 39.0 -19.35 39.05 -19.35 39.1 -19.3 39.3 -19.3 39.45 -19.25 39.55 -19.2 39.7 -19.2 39.75 -19.2 39.9 -19.15 40.0 -19.15 40.1 -19.1 40.15 -19.1 40.3 -19.05 40.5 -18.95 40.65 -18.85 40.8 -18.8 40.9 -18.7 41.0 -18.65 41.1 -18.55 41.2 -18.45 41.2 -18.4 41.3 -18.35 41.35 -18.3 41.45 -18.2 41.5 -18.1 41.55 -18.0 41.6 -17.95 41.65 -17.9 41.75 -17.8 41.8 -17.7 41.85 -17.6 41.9 -17.5 41.9 -17.45 41.9 -17.35 41.9 -17.3 41.9 -17.2 41.9 -17.1 41.95 -17.05 41.9 -16.95 41.9 -16.85 41.9 -16.75 41.9 -16.65 41.9 -16.55 41.85 -16.5 38.4 -16.55 36.15 -16.55 Q21.3 -16.45 12.2 -17.15 3.15 -17.9 24.75 -20.7 L37.7 -22.0 M41.35 -2.3 L44.1 -2.55 46.6 -2.7 47.0 -1.1 47.25 -0.2 47.3 0.0 47.35 0.0 47.4 0.05 47.55 0.05 47.75 0.1 47.85 0.15 47.95 0.15 48.05 0.2 48.2 0.25 48.3 0.25 48.4 0.25 48.45 0.25 48.6 0.3 48.8 0.4 48.95 0.5 49.1 0.6 49.2 0.7 49.3 0.7 49.4 0.8 49.5 0.9 49.5 0.95 49.6 1.0 49.65 1.1 49.7 1.15 49.8 1.25 49.85 1.35 49.9 1.4 49.95 1.5 50.05 1.55 50.1 1.65 50.1 1.75 50.15 1.85 50.15 1.95 50.15 2.0 50.2 2.05 50.2 2.15 50.2 2.25 50.25 2.35 50.2 2.45 50.2 2.5 50.2 2.6 50.15 2.7 50.15 2.75 50.15 2.85 50.1 2.85 44.45 2.85 44.05 2.85 41.55 2.85 20.5 2.2 Q11.45 1.45 33.05 -1.35 L41.35 -2.3 M38.5 16.3 L41.15 16.0 45.0 15.75 45.4 17.3 45.7 18.2 45.75 18.45 45.8 18.45 46.0 18.45 46.2 18.5 46.25 18.55 46.4 18.55 46.5 18.6 46.65 18.65 46.7 18.65 46.8 18.7 46.9 18.7 47.05 18.75 47.2 18.85 47.4 18.9 47.5 19.0 47.6 19.1 47.75 19.15 47.85 19.25 47.95 19.3 47.95 19.35 48.0 19.4 48.05 19.5 48.15 19.6 48.25 19.7 48.3 19.75 48.35 19.8 48.4 19.9 48.45 20.0 48.5 20.1 48.55 20.2 48.6 20.25 48.6 20.35 48.6 20.45 48.65 20.5 48.65 20.6 48.65 20.65 48.7 20.75 48.65 20.85 48.65 20.95 48.65 21.05 48.6 21.1 48.6 21.15 48.6 21.25 48.55 21.3 Q46.5 21.2 42.85 21.25 L37.95 21.25 35.4 21.25 18.95 20.6 Q9.85 19.85 31.5 17.1 L38.5 16.3 M-37.1 21.25 L-42.05 21.25 Q-45.65 21.2 -47.75 21.3 L-47.75 21.25 -47.75 21.15 -47.75 21.1 -47.8 21.05 -47.8 20.95 -47.8 20.85 -47.85 20.75 -47.8 20.65 -47.8 20.6 -47.8 20.5 -47.75 20.45 -47.75 20.35 -47.75 20.25 -47.75 20.2 -47.7 20.1 -47.65 20.0 -47.55 19.9 -47.5 19.8 -47.45 19.75 -47.4 19.7 -47.3 19.6 -47.25 19.5 -47.2 19.4 -47.1 19.35 -47.1 19.3 -47.0 19.25 -46.9 19.15 -46.8 19.1 -46.7 19.0 -46.55 18.9 -46.4 18.85 -46.2 18.75 -46.05 18.7 -46.0 18.7 -45.9 18.65 -45.8 18.65 -45.65 18.6 -45.6 18.55 -45.45 18.55 -45.35 18.5 -45.15 18.45 -45.0 18.45 -44.9 18.45 -44.85 18.2 -44.6 17.3 -44.2 15.75 -40.35 16.0 -30.65 17.1 Q-9.05 19.85 -18.1 20.6 L-37.1 21.25 M-43.25 2.85 L-43.6 2.85 -49.3 2.85 -49.35 2.85 -49.35 2.75 -49.35 2.7 -49.4 2.6 -49.4 2.5 -49.4 2.45 -49.45 2.35 -49.4 2.25 -49.4 2.15 -49.4 2.05 -49.35 2.0 -49.35 1.95 -49.35 1.85 -49.3 1.75 -49.25 1.65 -49.2 1.55 -49.1 1.5 -49.05 1.4 -49.05 1.35 -49.0 1.25 -48.9 1.15 -48.8 1.1 -48.75 1.0 -48.65 0.95 -48.65 0.9 -48.6 0.8 -48.5 0.7 -48.35 0.7 -48.25 0.6 -48.15 0.5 -47.95 0.4 -47.75 0.3 -47.65 0.25 -47.55 0.25 -47.45 0.25 -47.35 0.25 -47.25 0.2 -47.15 0.15 -47.0 0.15 -46.9 0.1 -46.75 0.05 -46.55 0.05 -46.5 0.0 -46.45 0.0 -46.45 -0.2 -46.15 -1.1 -45.75 -2.7 -43.3 -2.55 -32.2 -1.35 Q-10.6 1.45 -19.65 2.2 -28.7 2.9 -43.25 2.85 M-41.0 -16.5 L-41.05 -16.55 -41.05 -16.65 -41.1 -16.75 -41.1 -16.85 -41.1 -16.95 -41.15 -17.05 -41.1 -17.1 -41.1 -17.2 -41.1 -17.3 -41.05 -17.35 -41.05 -17.45 -41.05 -17.5 -41.0 -17.6 -40.95 -17.7 -40.9 -17.8 -40.8 -17.9 -40.8 -17.95 -40.75 -18.0 -40.7 -18.1 -40.6 -18.2 -40.5 -18.3 -40.45 -18.35 -40.4 -18.4 -40.4 -18.45 -40.3 -18.55 -40.2 -18.65 -40.05 -18.7 -39.95 -18.8 -39.85 -18.85 -39.65 -18.95 -39.5 -19.05 -39.35 -19.1 -39.25 -19.1 -39.15 -19.15 -39.1 -19.15 -38.95 -19.2 -38.85 -19.2 -38.7 -19.2 -38.65 -19.25 -38.45 -19.3 -38.25 -19.3 -38.2 -19.35 -38.15 -19.6 -37.85 -20.5 -37.45 -22.05 -23.95 -20.7 Q-2.3 -17.9 -11.35 -17.15 -20.45 -16.45 -35.3 -16.55 L-41.0 -16.5 M-48.55 -42.0 L-49.4 -42.3 Q-49.9 -42.7 -49.9 -43.5 L-49.65 -45.0 -49.15 -46.3 -49.05 -46.5 -48.15 -48.4 -49.2 -48.45 -49.35 -48.55 Q-49.7 -48.9 -49.5 -49.55 L-49.15 -50.0 -48.85 -50.4 -47.9 -51.1 -46.2 -52.0 -44.3 -52.5 -43.55 -52.25 -45.85 -46.6 -46.95 -43.95 -47.3 -42.9 Q-47.65 -42.25 -48.1 -42.1 L-48.55 -42.0 M-43.8 -65.0 L-44.1 -64.75 -44.7 -64.85 Q-45.0 -65.05 -44.8 -65.45 L-44.6 -66.0 -44.3 -66.85 Q-44.15 -67.8 -43.45 -68.65 L-42.55 -69.65 -40.8 -71.25 -39.65 -72.05 -37.7 -73.1 -35.5 -72.95 Q-35.0 -72.7 -34.8 -72.25 -34.6 -71.75 -34.8 -71.3 -35.0 -71.0 -35.95 -70.6 L-36.6 -70.3 -40.15 -67.7 Q-41.7 -66.15 -42.55 -65.7 L-43.5 -65.15 -43.8 -65.0 M10.65 -35.7 L15.45 -36.15 16.95 -36.25 18.05 -36.25 18.5 -36.2 19.1 -36.1 19.5 -35.95 19.9 -35.75 20.25 -35.7 20.35 -35.6 20.6 -35.5 20.8 -35.3 21.0 -35.15 21.05 -35.0 21.1 -34.8 21.2 -34.6 21.2 -34.45 21.25 -34.35 21.25 -34.15 21.2 -33.95 21.2 -33.8 21.1 -33.65 21.05 -33.5 20.9 -33.3 20.75 -33.1 20.6 -33.0 19.95 -33.15 13.15 -33.4 4.95 -33.5 Q3.0 -33.65 4.6 -34.4 6.2 -35.25 10.65 -35.7 M32.85 -36.65 L36.5 -33.95 Q30.85 -34.6 27.2 -35.55 L27.85 -36.95 28.15 -37.65 28.6 -39.2 28.85 -39.25 29.5 -38.85 Q30.3 -38.5 32.85 -36.65 M32.85 -48.85 L32.65 -49.55 33.65 -52.15 33.75 -52.2 33.75 -52.6 33.9 -53.0 37.55 -44.75 32.35 -47.4 32.15 -48.0 32.05 -48.3 32.35 -48.8 32.85 -48.85 M-32.05 -48.85 L-31.5 -48.8 -31.25 -48.3 -31.3 -48.0 -31.55 -47.4 -36.75 -44.75 -33.05 -53.0 -32.95 -52.6 -32.95 -52.2 -32.85 -52.15 -31.8 -49.55 -32.05 -48.85 M-9.8 -35.7 Q-5.35 -35.25 -3.75 -34.4 -2.2 -33.65 -4.1 -33.5 L-12.3 -33.4 -19.15 -33.15 -19.75 -33.0 -19.95 -33.1 -20.05 -33.3 -20.2 -33.5 -20.3 -33.65 -20.4 -33.8 -20.4 -33.95 -20.45 -34.15 -20.45 -34.35 -20.4 -34.45 -20.4 -34.6 -20.3 -34.8 -20.2 -35.0 -20.15 -35.15 -20.0 -35.3 -19.75 -35.5 -19.55 -35.6 -19.4 -35.7 -19.1 -35.75 -18.7 -35.95 -18.3 -36.1 -17.7 -36.2 -17.25 -36.25 -16.15 -36.25 -14.65 -36.15 -9.8 -35.7 M-32.05 -36.65 L-28.7 -38.85 Q-27.95 -39.2 -27.95 -39.25 L-27.8 -39.2 -27.35 -37.65 -27.0 -36.95 -26.4 -35.55 Q-30.0 -34.6 -35.65 -33.95 L-32.05 -36.65" fill="#4d362d" fill-rule="evenodd" stroke="none"/>
      <path d="M-6.6 37.05 L-11.45 36.6 Q-11.7 38.35 -12.5 40.65 -14.9 48.25 -19.7 54.8 -24.4 61.3 -30.8 65.95 -32.4 66.95 -33.15 66.7 -33.95 66.45 -35.45 62.3 -36.95 58.2 -37.2 48.45 -37.4 38.75 -35.15 32.7 L-37.6 34.2 Q-39.9 35.55 -44.85 36.4 -49.85 37.2 -57.8 35.5 -65.85 33.8 -70.15 30.75 -74.45 27.7 -73.4 26.1 L-73.35 26.05 Q-73.0 25.65 -72.1 25.35 -68.95 24.25 -65.85 22.4 -62.8 20.6 -57.65 16.9 -52.5 13.25 -49.85 10.8 -48.45 9.55 -47.55 9.1 L-51.45 9.5 Q-57.25 9.85 -62.9 8.25 -68.55 6.65 -73.3 3.3 L-76.0 1.25 Q-81.25 -3.05 -84.0 -5.95 -86.75 -8.85 -85.75 -10.2 L-82.1 -10.4 -79.5 -10.8 -75.9 -11.65 -71.5 -12.75 Q-68.5 -13.7 -64.55 -15.75 L-57.85 -19.3 Q-49.5 -23.7 -43.6 -23.8 L-39.55 -23.35 -38.9 -25.25 -40.15 -25.9 -40.5 -26.15 -41.8 -25.2 Q-42.45 -24.75 -42.9 -24.65 -43.5 -24.45 -43.95 -24.9 -44.55 -25.65 -43.7 -26.85 L-42.8 -27.95 Q-45.6 -30.55 -47.65 -34.1 -50.4 -39.1 -51.1 -44.75 -51.7 -50.2 -50.35 -55.9 -49.05 -61.3 -46.2 -66.35 -42.9 -72.1 -38.45 -75.65 L-37.75 -76.05 -37.5 -76.2 -37.2 -76.35 -36.35 -76.8 -35.45 -76.6 Q-35.1 -76.3 -35.0 -75.3 -34.45 -68.5 -31.75 -62.1 -31.0 -68.4 -27.65 -73.35 L-26.5 -74.55 -26.1 -74.75 -25.85 -74.65 -24.8 -69.4 Q-24.1 -67.15 -22.7 -65.35 L-18.85 -61.0 Q-15.65 -57.75 -13.75 -55.2 L-13.05 -54.2 -13.1 -56.35 Q-13.3 -63.7 -11.4 -70.85 -9.95 -76.4 -6.7 -82.85 L0.75 -95.45 7.75 -82.9 9.5 -79.2 9.7 -78.75 10.6 -76.9 Q10.65 -75.55 8.4 -70.65 6.6 -66.85 5.45 -65.35 L13.35 -61.3 Q14.45 -60.6 14.3 -57.95 L14.1 -54.25 14.8 -55.25 Q16.7 -57.75 19.9 -61.05 L23.75 -65.4 Q25.15 -67.2 25.85 -69.45 L26.9 -74.7 27.15 -74.8 27.55 -74.6 28.7 -73.4 Q32.05 -68.45 32.8 -62.15 35.5 -68.55 36.05 -75.35 36.15 -76.35 36.5 -76.65 L37.4 -76.8 37.85 -76.7 38.65 -76.4 39.95 -75.35 Q44.1 -71.85 47.25 -66.4 50.1 -61.35 51.4 -55.95 52.75 -50.25 52.15 -44.8 51.45 -39.15 48.7 -34.15 46.65 -30.6 43.85 -28.0 L44.75 -26.9 Q45.6 -25.7 45.0 -24.95 44.55 -24.5 43.95 -24.7 43.5 -24.8 42.85 -25.25 L41.55 -26.15 41.2 -25.95 Q40.55 -25.55 39.95 -25.3 L40.6 -23.4 44.65 -23.85 Q50.55 -23.75 58.9 -19.35 L65.6 -15.75 Q69.55 -13.75 72.55 -12.8 L76.95 -11.7 80.55 -10.85 83.15 -10.45 86.8 -10.25 Q88.0 -10.0 85.2 -6.55 82.3 -3.1 77.05 1.2 L74.35 3.3 Q69.6 6.6 63.95 8.2 58.3 9.8 52.5 9.45 L48.6 9.05 50.9 10.75 Q53.6 13.2 58.7 16.85 63.85 20.55 66.9 22.35 70.0 24.2 73.15 25.3 L74.4 26.0 74.45 26.05 Q75.5 27.65 71.2 30.7 66.9 33.75 58.85 35.45 50.9 37.15 45.9 36.35 40.95 35.5 38.65 34.15 L36.2 32.65 Q38.45 38.7 38.25 48.4 38.0 58.15 36.5 62.25 35.0 66.4 34.2 66.65 33.45 66.9 31.85 65.9 25.45 61.3 20.75 54.8 15.95 48.2 13.55 40.6 12.75 38.3 12.5 36.55 L7.7 37.0 Q3.6 37.25 0.75 37.0 -2.2 37.3 -6.6 37.05 M-0.7 -45.75 L-0.35 -45.7 -0.4 -47.45 -0.4 -48.2 Q-0.15 -58.45 0.4 -58.9 1.0 -59.4 1.2 -57.85 L1.45 -54.1 1.6 -49.15 1.75 -45.8 Q5.25 -45.8 8.55 -44.55 L8.75 -45.05 Q10.65 -51.7 10.45 -58.75 L9.25 -59.65 4.4 -62.55 Q2.85 -63.35 1.6 -64.65 1.35 -65.0 1.25 -65.75 0.75 -68.6 0.95 -73.0 L1.0 -74.4 1.25 -77.75 1.4 -78.25 1.8 -78.5 2.1 -77.9 Q2.5 -74.25 2.5 -70.65 L2.55 -67.75 2.65 -66.85 4.6 -70.5 Q6.0 -73.05 6.9 -76.0 L7.0 -76.2 4.85 -81.2 3.0 -84.95 0.55 -90.05 -1.95 -84.9 -3.8 -81.15 Q-8.0 -72.2 -9.05 -63.4 -10.2 -53.85 -7.7 -45.0 L-7.5 -44.5 Q-4.2 -45.75 -0.7 -45.75 M-13.6 -40.85 L-10.7 -43.25 Q-11.65 -45.6 -11.85 -47.7 -15.35 -53.6 -19.65 -57.8 L-23.5 -61.45 Q-25.55 -63.65 -26.55 -65.6 L-27.4 -68.1 -28.1 -64.7 Q-28.65 -61.25 -28.65 -59.5 L-28.1 -55.3 Q-25.5 -51.4 -22.05 -48.2 L-21.35 -47.55 -22.25 -49.95 -22.6 -51.55 Q-22.6 -52.15 -22.25 -52.15 L-22.0 -51.7 -20.9 -49.0 Q-19.9 -46.65 -18.95 -45.65 L-16.75 -43.35 Q-15.45 -42.1 -14.3 -40.2 L-13.6 -40.85 M-32.8 -33.1 Q-30.15 -35.0 -26.8 -35.8 L-27.55 -36.85 Q-28.6 -38.35 -29.95 -41.55 -33.2 -49.7 -36.9 -64.15 L-36.95 -64.3 -37.05 -64.65 Q-38.05 -68.4 -38.0 -72.05 L-41.95 -65.85 Q-44.35 -61.45 -45.55 -57.5 -47.75 -49.7 -45.2 -41.5 -42.9 -34.0 -39.4 -30.5 L-38.8 -30.75 Q-36.7 -31.65 -34.35 -31.8 L-32.8 -33.1 M-40.8 -16.1 Q-40.8 -18.0 -40.4 -19.9 L-41.5 -20.0 Q-47.05 -20.25 -54.15 -16.8 L-59.95 -13.65 Q-63.6 -11.7 -65.8 -10.7 -71.65 -8.1 -78.3 -7.45 L-80.75 -7.35 -80.55 -7.1 Q-71.6 0.9 -63.65 3.75 -59.0 5.4 -54.25 5.5 -49.2 5.6 -44.9 3.9 L-43.9 3.5 Q-43.6 -1.3 -41.95 -6.95 -44.95 -5.25 -49.5 -4.45 L-63.55 -3.75 -64.35 -4.0 Q-64.8 -4.3 -64.65 -4.75 -64.5 -5.1 -63.65 -5.1 -56.65 -4.6 -46.8 -7.45 L-43.9 -8.4 -41.9 -9.25 -41.2 -9.5 -40.65 -11.2 -40.8 -16.1 M4.15 -41.2 L2.6 -41.3 -0.05 -41.45 -1.4 -41.35 -2.2 -41.3 -3.65 -41.1 -4.8 -40.85 Q-8.75 -39.7 -11.35 -37.65 -13.95 -35.6 -15.05 -33.85 -16.15 -32.05 -17.1 -32.35 L-19.6 -32.6 -23.65 -32.15 Q-26.1 -31.75 -27.3 -30.95 -23.8 -29.9 -21.35 -28.65 L-19.35 -27.5 Q-18.85 -29.7 -17.5 -30.6 -16.15 -31.55 -15.45 -30.9 -14.75 -30.25 -15.4 -28.75 -16.1 -27.25 -16.25 -25.95 -16.45 -24.7 -17.1 -23.4 L-20.25 -23.35 Q-22.2 -24.7 -25.25 -26.3 -28.3 -27.9 -31.6 -28.3 -33.95 -26.25 -35.1 -23.1 -36.5 -19.35 -36.45 -15.95 L-36.45 -12.15 -36.6 -11.2 -37.35 -9.0 -38.65 -4.4 -39.1 -1.4 -39.45 1.65 Q-39.75 5.95 -38.6 10.3 -37.4 14.55 -35.0 18.25 -30.05 25.65 -21.6 29.1 L-15.25 31.05 -7.65 32.4 -1.95 32.95 0.05 32.95 8.7 32.35 16.3 31.0 22.65 29.05 Q31.1 25.6 36.05 18.2 38.45 14.55 39.65 10.25 40.8 5.9 40.5 1.6 L40.15 -1.45 39.7 -4.45 38.4 -9.05 37.65 -11.25 37.5 -12.2 37.5 -16.0 Q37.55 -19.4 36.15 -23.15 35.0 -26.3 32.65 -28.35 29.35 -27.95 26.3 -26.35 L21.3 -23.4 18.15 -23.45 Q17.5 -24.75 17.3 -26.0 17.15 -27.3 16.45 -28.75 15.8 -30.3 16.5 -30.9 17.2 -31.6 18.55 -30.65 19.9 -29.75 20.4 -27.55 L22.4 -28.7 Q24.85 -29.95 28.35 -31.0 27.15 -31.8 24.7 -32.2 L20.65 -32.65 18.15 -32.4 Q17.2 -32.1 16.1 -33.9 15.05 -35.65 12.4 -37.7 9.8 -39.75 5.85 -40.85 L4.9 -41.1 4.15 -41.2 M-23.5 -44.15 Q-28.05 -48.25 -32.2 -53.4 -31.2 -48.35 -29.0 -43.4 -26.8 -38.4 -24.4 -36.25 -21.5 -36.65 -18.4 -36.2 L-16.95 -37.8 -16.9 -37.8 -23.5 -44.15 M-30.45 -9.85 Q-33.6 -8.8 -34.65 -8.0 -35.65 -7.3 -36.2 -7.7 -36.75 -8.15 -36.7 -8.75 -36.7 -9.35 -35.65 -11.05 -34.7 -12.8 -32.9 -14.15 -31.1 -15.55 -26.95 -15.9 -22.8 -16.25 -19.25 -14.7 -15.75 -13.15 -14.15 -11.65 -12.55 -10.2 -12.15 -8.9 -11.85 -7.95 -12.55 -7.6 -13.1 -7.5 -13.65 -8.0 -15.7 -9.75 -20.2 -10.3 L-30.45 -9.85 M-5.0 -1.1 Q-3.95 -1.45 -2.4 -2.45 -0.95 -3.55 -0.6 -6.95 -0.4 -9.5 0.1 -10.25 L0.45 -10.55 0.5 -10.55 0.85 -10.25 Q1.35 -9.5 1.6 -6.95 1.9 -3.55 3.35 -2.45 4.9 -1.45 5.95 -1.1 L8.3 -0.75 11.15 -1.0 Q12.85 -1.35 13.55 -2.05 14.5 -2.9 14.2 -4.05 L14.05 -4.75 Q14.05 -5.4 14.6 -5.65 15.25 -5.95 15.8 -5.45 L16.5 -4.45 Q16.95 -3.3 16.8 -2.1 16.65 -0.85 15.9 0.1 14.8 1.5 13.1 2.0 L10.85 2.45 9.3 4.6 8.05 6.05 7.2 6.5 Q6.5 6.5 6.15 5.85 L4.65 2.65 3.85 1.05 1.2 -1.1 0.5 -2.2 -0.2 -1.1 Q-3.2 2.25 -8.75 2.4 L-12.15 2.0 Q-13.85 1.5 -14.95 0.1 -15.7 -0.85 -15.85 -2.1 -16.0 -3.3 -15.55 -4.45 -15.3 -5.1 -14.85 -5.45 -14.3 -5.95 -13.6 -5.65 -13.1 -5.4 -13.1 -4.75 L-13.25 -4.05 Q-13.55 -2.9 -12.6 -2.05 -11.85 -1.35 -10.2 -1.0 L-7.35 -0.75 -5.0 -1.1 M33.85 -33.15 L35.4 -31.85 Q37.75 -31.7 39.85 -30.8 L40.45 -30.5 Q43.95 -34.05 46.25 -41.55 48.8 -49.75 46.6 -57.55 45.4 -61.5 43.0 -65.9 L39.05 -72.05 Q39.1 -68.45 38.1 -64.7 L38.0 -64.35 38.0 -64.2 Q34.25 -49.75 31.0 -41.6 29.65 -38.4 28.6 -36.9 L27.85 -35.85 Q31.2 -35.05 33.85 -33.15 M14.65 -40.9 L15.35 -40.25 Q16.5 -42.15 17.8 -43.4 L20.0 -45.65 Q20.95 -46.7 21.95 -49.05 L23.05 -51.7 23.3 -52.15 Q23.65 -52.2 23.65 -51.6 L23.3 -49.95 22.4 -47.6 23.1 -48.25 Q26.55 -51.45 29.15 -55.35 29.65 -57.35 29.7 -59.55 29.7 -61.3 29.15 -64.7 L28.45 -68.15 27.6 -65.65 Q26.6 -63.7 24.55 -61.5 L20.7 -57.85 Q16.4 -53.65 12.9 -47.75 12.7 -45.65 11.75 -43.3 L14.65 -40.9 M31.5 -9.9 L21.25 -10.35 Q16.75 -9.8 14.7 -8.05 14.15 -7.55 13.6 -7.65 12.9 -8.0 13.2 -8.95 13.6 -10.25 15.2 -11.7 16.8 -13.15 20.3 -14.75 23.85 -16.3 28.0 -15.95 32.15 -15.6 33.95 -14.2 35.75 -12.85 36.7 -11.1 L37.75 -8.8 Q37.8 -8.2 37.25 -7.75 36.7 -7.35 35.7 -8.05 34.65 -8.85 31.5 -9.9 M24.55 -44.2 L17.95 -37.85 18.0 -37.85 19.45 -36.25 Q22.55 -36.7 25.45 -36.3 30.3 -42.95 31.45 -46.95 32.5 -51.05 32.45 -52.9 29.1 -48.3 24.55 -44.2 M37.4 24.5 L35.65 26.3 38.0 28.55 Q41.3 31.3 46.0 32.25 50.1 33.05 54.9 32.45 61.75 31.55 69.95 27.6 67.0 26.8 64.7 25.6 L58.45 21.6 Q54.55 18.9 50.0 14.55 L44.45 9.5 44.15 12.1 Q43.2 15.4 41.6 18.4 L43.3 19.75 Q48.85 24.1 56.85 25.8 57.45 25.85 57.55 26.2 L57.3 26.75 56.6 26.95 54.6 26.7 Q49.7 25.8 46.3 24.15 43.3 22.75 40.65 20.35 L40.55 20.25 37.4 24.5 M41.85 -16.15 L41.7 -11.25 42.25 -9.55 42.95 -9.3 44.95 -8.45 47.85 -7.5 Q57.7 -4.65 64.7 -5.15 65.55 -5.15 65.7 -4.8 65.85 -4.35 65.4 -4.05 L64.6 -3.8 50.55 -4.5 Q46.0 -5.3 43.0 -7.0 44.65 -1.35 44.95 3.45 L45.95 3.85 Q50.25 5.55 55.3 5.45 60.05 5.35 64.7 3.7 72.65 0.85 81.6 -7.15 L81.8 -7.4 79.35 -7.5 Q72.7 -8.15 66.85 -10.75 64.65 -11.75 61.0 -13.7 L55.2 -16.85 Q48.1 -20.3 42.55 -20.05 L41.45 -19.95 Q41.85 -18.05 41.85 -16.15 M7.3 4.15 L7.75 3.45 8.45 2.35 6.4 2.0 6.55 2.3 7.3 4.15 M33.65 59.45 Q34.25 56.7 34.5 52.85 L34.65 45.8 Q34.35 38.5 31.2 29.95 28.55 31.75 25.45 33.1 L26.55 35.8 28.9 42.55 Q30.55 47.4 30.55 50.0 L30.45 50.55 30.0 50.85 29.55 50.25 Q27.05 41.75 24.0 33.7 20.45 35.05 16.35 35.85 18.7 44.4 23.95 51.8 27.95 57.35 33.15 61.55 L33.65 59.45 M-36.35 24.5 Q-38.1 22.5 -39.5 20.3 L-39.6 20.4 Q-42.25 22.8 -45.25 24.2 -48.65 25.85 -53.55 26.75 L-55.55 27.0 Q-56.0 27.0 -56.25 26.8 L-56.5 26.25 Q-56.4 25.9 -55.8 25.8 -47.8 24.1 -42.25 19.8 L-40.55 18.45 Q-42.15 15.4 -43.1 12.15 L-43.4 9.55 -48.95 14.6 Q-53.5 18.9 -57.4 21.65 -61.35 24.4 -63.65 25.65 -65.95 26.85 -68.9 27.65 -60.7 31.6 -53.85 32.5 -49.05 33.1 -44.95 32.3 -40.25 31.35 -36.9 28.6 L-34.6 26.35 -36.35 24.5 M-32.6 59.5 L-32.1 61.6 Q-26.9 57.4 -22.9 51.8 -17.65 44.45 -15.3 35.9 -19.4 35.1 -22.95 33.75 -26.0 41.8 -28.5 50.3 -28.7 50.85 -28.95 50.9 L-29.4 50.6 -29.5 50.05 Q-29.5 47.45 -27.85 42.6 L-25.5 35.85 -24.4 33.15 -30.15 30.0 Q-33.3 38.55 -33.6 45.85 L-33.45 52.9 Q-33.2 56.75 -32.6 59.5" fill="#000000" fill-rule="evenodd" stroke="none"/>
      <path d="M-51.05 -32.4 L-51.45 -32.3 Q-53.5 -32.5 -56.45 -34.9 L-59.8 -37.75 -60.4 -38.7 Q-60.6 -39.4 -59.95 -39.6 L-59.05 -39.35 Q-56.05 -37.4 -52.75 -34.8 -51.45 -33.8 -51.05 -33.1 -50.75 -32.6 -51.05 -32.4 M-51.95 -26.85 Q-52.1 -26.6 -52.55 -26.6 L-56.4 -27.0 -58.6 -27.45 Q-59.15 -27.55 -59.5 -27.8 -60.0 -28.1 -59.9 -28.6 L-59.35 -29.15 -58.55 -29.2 Q-55.5 -28.95 -52.6 -27.85 L-52.05 -27.45 Q-51.75 -27.1 -51.95 -26.85 M52.65 -26.85 Q52.45 -27.1 52.7 -27.45 L53.3 -27.85 Q56.2 -28.95 59.2 -29.2 L60.05 -29.15 60.6 -28.6 Q60.7 -28.1 60.2 -27.8 59.85 -27.55 59.3 -27.45 L57.1 -27.0 53.25 -26.6 Q52.8 -26.6 52.65 -26.85 M51.75 -32.4 Q51.4 -32.6 51.75 -33.1 52.15 -33.8 53.45 -34.8 L59.75 -39.35 60.65 -39.6 Q61.3 -39.4 61.1 -38.7 L60.5 -37.75 57.15 -34.9 Q54.2 -32.5 52.15 -32.3 L51.75 -32.4" fill="#4d362d" fill-rule="evenodd" stroke="none"/>
      <path d="M-13.6 -40.85 L-14.3 -40.2 Q-15.45 -42.1 -16.75 -43.35 L-18.95 -45.65 Q-19.9 -46.65 -20.9 -49.0 L-22.0 -51.7 -22.25 -52.15 Q-22.6 -52.15 -22.6 -51.55 L-22.25 -49.95 -21.35 -47.55 -22.05 -48.2 Q-25.5 -51.4 -28.1 -55.3 L-28.65 -59.5 Q-28.65 -61.25 -28.1 -64.7 L-27.4 -68.1 -26.55 -65.6 Q-25.55 -63.65 -23.5 -61.45 L-19.65 -57.8 Q-15.35 -53.6 -11.85 -47.7 -11.65 -45.6 -10.7 -43.25 L-13.6 -40.85 M-0.7 -45.75 Q-4.2 -45.75 -7.5 -44.5 L-7.7 -45.0 Q-10.2 -53.85 -9.05 -63.4 -8.0 -72.2 -3.8 -81.15 L-1.95 -84.9 0.55 -90.05 3.0 -84.95 4.85 -81.2 7.0 -76.2 6.9 -76.0 Q6.0 -73.05 4.6 -70.5 L2.65 -66.85 2.55 -67.75 2.5 -70.65 Q2.5 -74.25 2.1 -77.9 L1.8 -78.5 1.4 -78.25 1.25 -77.75 1.0 -74.4 0.95 -73.0 Q0.75 -68.6 1.25 -65.75 1.35 -65.0 1.6 -64.65 2.85 -63.35 4.4 -62.55 L9.25 -59.65 10.45 -58.75 Q10.65 -51.7 8.75 -45.05 L8.55 -44.55 Q5.25 -45.8 1.75 -45.8 L1.6 -49.15 1.45 -54.1 1.2 -57.85 Q1.0 -59.4 0.4 -58.9 -0.15 -58.45 -0.4 -48.2 L-0.4 -47.45 -0.35 -45.7 -0.7 -45.75 M-40.8 -16.1 L-40.65 -11.2 -41.2 -9.5 -41.9 -9.25 -43.9 -8.4 -46.8 -7.45 Q-56.65 -4.6 -63.65 -5.1 -64.5 -5.1 -64.65 -4.75 -64.8 -4.3 -64.35 -4.0 L-63.55 -3.75 -49.5 -4.45 Q-44.95 -5.25 -41.95 -6.95 -43.6 -1.3 -43.9 3.5 L-44.9 3.9 Q-49.2 5.6 -54.25 5.5 -59.0 5.4 -63.65 3.75 -71.6 0.9 -80.55 -7.1 L-80.75 -7.35 -78.3 -7.45 Q-71.65 -8.1 -65.8 -10.7 -63.6 -11.7 -59.95 -13.65 L-54.15 -16.8 Q-47.05 -20.25 -41.5 -20.0 L-40.4 -19.9 Q-40.8 -18.0 -40.8 -16.1 M14.65 -40.9 L11.75 -43.3 Q12.7 -45.65 12.9 -47.75 16.4 -53.65 20.7 -57.85 L24.55 -61.5 Q26.6 -63.7 27.6 -65.65 L28.45 -68.15 29.15 -64.7 Q29.7 -61.3 29.7 -59.55 29.65 -57.35 29.15 -55.35 26.55 -51.45 23.1 -48.25 L22.4 -47.6 23.3 -49.95 23.65 -51.6 Q23.65 -52.2 23.3 -52.15 L23.05 -51.7 21.95 -49.05 Q20.95 -46.7 20.0 -45.65 L17.8 -43.4 Q16.5 -42.15 15.35 -40.25 L14.65 -40.9 M41.85 -16.15 Q41.85 -18.05 41.45 -19.95 L42.55 -20.05 Q48.1 -20.3 55.2 -16.85 L61.0 -13.7 Q64.65 -11.75 66.85 -10.75 72.7 -8.15 79.35 -7.5 L81.8 -7.4 81.6 -7.15 Q72.65 0.85 64.7 3.7 60.05 5.35 55.3 5.45 50.25 5.55 45.95 3.85 L44.95 3.45 Q44.65 -1.35 43.0 -7.0 46.0 -5.3 50.55 -4.5 L64.6 -3.8 65.4 -4.05 Q65.85 -4.35 65.7 -4.8 65.55 -5.15 64.7 -5.15 57.7 -4.65 47.85 -7.5 L44.95 -8.45 42.95 -9.3 42.25 -9.55 41.7 -11.25 41.85 -16.15 M37.4 24.5 L40.55 20.25 40.65 20.35 Q43.3 22.75 46.3 24.15 49.7 25.8 54.6 26.7 L56.6 26.95 57.3 26.75 57.55 26.2 Q57.45 25.85 56.85 25.8 48.85 24.1 43.3 19.75 L41.6 18.4 Q43.2 15.4 44.15 12.1 L44.45 9.5 50.0 14.55 Q54.55 18.9 58.45 21.6 L64.7 25.6 Q67.0 26.8 69.95 27.6 61.75 31.55 54.9 32.45 50.1 33.05 46.0 32.25 41.3 31.3 38.0 28.55 L35.65 26.3 37.4 24.5 M33.65 59.45 L33.15 61.55 Q27.95 57.35 23.95 51.8 18.7 44.4 16.35 35.85 20.45 35.05 24.0 33.7 27.05 41.75 29.55 50.25 L30.0 50.85 30.45 50.55 30.55 50.0 Q30.55 47.4 28.9 42.55 L26.55 35.8 25.45 33.1 Q28.55 31.75 31.2 29.95 34.35 38.5 34.65 45.8 L34.5 52.85 Q34.25 56.7 33.65 59.45 M-32.6 59.5 Q-33.2 56.75 -33.45 52.9 L-33.6 45.85 Q-33.3 38.55 -30.15 30.0 L-24.4 33.15 -25.5 35.85 -27.85 42.6 Q-29.5 47.45 -29.5 50.05 L-29.4 50.6 -28.95 50.9 Q-28.7 50.85 -28.5 50.3 -26.0 41.8 -22.95 33.75 -19.4 35.1 -15.3 35.9 -17.65 44.45 -22.9 51.8 -26.9 57.4 -32.1 61.6 L-32.6 59.5 M-36.35 24.5 L-34.6 26.35 -36.9 28.6 Q-40.25 31.35 -44.95 32.3 -49.05 33.1 -53.85 32.5 -60.7 31.6 -68.9 27.65 -65.95 26.85 -63.65 25.65 -61.35 24.4 -57.4 21.65 -53.5 18.9 -48.95 14.6 L-43.4 9.55 -43.1 12.15 Q-42.15 15.4 -40.55 18.45 L-42.25 19.8 Q-47.8 24.1 -55.8 25.8 -56.4 25.9 -56.5 26.25 L-56.25 26.8 Q-56.0 27.0 -55.55 27.0 L-53.55 26.75 Q-48.65 25.85 -45.25 24.2 -42.25 22.8 -39.6 20.4 L-39.5 20.3 Q-38.1 22.5 -36.35 24.5" fill="#1c1c1c" fill-rule="evenodd" stroke="none"/>
      <path d="M-6.6 37.05 L-11.45 36.6 Q-11.7 38.35 -12.5 40.65 -14.9 48.25 -19.7 54.8 -24.4 61.3 -30.8 65.95 -32.4 66.95 -33.15 66.7 -33.95 66.45 -35.45 62.3 -36.95 58.2 -37.2 48.45 -37.4 38.75 -35.15 32.7 L-37.6 34.2 Q-39.9 35.55 -44.85 36.4 -49.85 37.2 -57.8 35.5 -65.85 33.8 -70.15 30.75 -74.45 27.7 -73.4 26.1 L-73.35 26.05 Q-73.0 25.65 -72.1 25.35 -68.95 24.25 -65.85 22.4 -62.8 20.6 -57.65 16.9 -52.5 13.25 -49.85 10.8 -48.45 9.55 -47.55 9.1 L-51.45 9.5 Q-57.25 9.85 -62.9 8.25 -68.55 6.65 -73.3 3.3 L-76.0 1.25 Q-81.25 -3.05 -84.0 -5.95 -86.75 -8.85 -85.75 -10.2 L-82.1 -10.4 -79.5 -10.8 -75.9 -11.65 -71.5 -12.75 Q-68.5 -13.7 -64.55 -15.75 L-57.85 -19.3 Q-49.5 -23.7 -43.6 -23.8 L-39.55 -23.35 -38.9 -25.25 -40.15 -25.9 -40.5 -26.15 -41.8 -25.2 Q-42.45 -24.75 -42.9 -24.65 -43.5 -24.45 -43.95 -24.9 -44.55 -25.65 -43.7 -26.85 L-42.8 -27.95 Q-45.6 -30.55 -47.65 -34.1 -50.4 -39.1 -51.1 -44.75 -51.7 -50.2 -50.35 -55.9 -49.05 -61.3 -46.2 -66.35 -42.9 -72.1 -38.45 -75.65 L-37.75 -76.05 -37.5 -76.2 -37.2 -76.35 -36.35 -76.8 -35.45 -76.6 Q-35.1 -76.3 -35.0 -75.3 -34.45 -68.5 -31.75 -62.1 -31.0 -68.4 -27.65 -73.35 L-26.5 -74.55 -26.1 -74.75 -25.85 -74.65 -24.8 -69.4 Q-24.1 -67.15 -22.7 -65.35 L-18.85 -61.0 Q-15.65 -57.75 -13.75 -55.2 L-13.05 -54.2 -13.1 -56.35 Q-13.3 -63.7 -11.4 -70.85 -9.95 -76.4 -6.7 -82.85 L0.75 -95.45 7.75 -82.9 9.5 -79.2 9.7 -78.75 10.6 -76.9 Q10.65 -75.55 8.4 -70.65 6.6 -66.85 5.45 -65.35 L13.35 -61.3 Q14.45 -60.6 14.3 -57.95 L14.1 -54.25 14.8 -55.25 Q16.7 -57.75 19.9 -61.05 L23.75 -65.4 Q25.15 -67.2 25.85 -69.45 L26.9 -74.7 27.15 -74.8 27.55 -74.6 28.7 -73.4 Q32.05 -68.45 32.8 -62.15 35.5 -68.55 36.05 -75.35 36.15 -76.35 36.5 -76.65 L37.4 -76.8 37.85 -76.7 38.65 -76.4 39.95 -75.35 Q44.1 -71.85 47.25 -66.4 50.1 -61.35 51.4 -55.95 52.75 -50.25 52.15 -44.8 51.45 -39.15 48.7 -34.15 46.65 -30.6 43.85 -28.0 L44.75 -26.9 Q45.6 -25.7 45.0 -24.95 44.55 -24.5 43.95 -24.7 43.5 -24.8 42.85 -25.25 L41.55 -26.15 41.2 -25.95 Q40.55 -25.55 39.95 -25.3 L40.6 -23.4 44.65 -23.85 Q50.55 -23.75 58.9 -19.35 L65.6 -15.75 Q69.55 -13.75 72.55 -12.8 L76.95 -11.7 80.55 -10.85 83.15 -10.45 86.8 -10.25 Q88.0 -10.0 85.2 -6.55 82.3 -3.1 77.05 1.2 L74.35 3.3 Q69.6 6.6 63.95 8.2 58.3 9.8 52.5 9.45 L48.6 9.05 50.9 10.75 Q53.6 13.2 58.7 16.85 63.85 20.55 66.9 22.35 70.0 24.2 73.15 25.3 L74.4 26.0 74.45 26.05 Q75.5 27.65 71.2 30.7 66.9 33.75 58.85 35.45 50.9 37.15 45.9 36.35 40.95 35.5 38.65 34.15 L36.2 32.65 Q38.45 38.7 38.25 48.4 38.0 58.15 36.5 62.25 35.0 66.4 34.2 66.65 33.45 66.9 31.85 65.9 25.45 61.3 20.75 54.8 15.95 48.2 13.55 40.6 12.75 38.3 12.5 36.55 L7.7 37.0 Q3.6 37.25 0.75 37.0 -2.2 37.3 -6.6 37.05 Z" fill="none" stroke="#000000" stroke-linecap="round" stroke-linejoin="round" stroke-width="2.0"/>
    </g>
  </defs>
</svg>
