<?xml version="1.0" encoding="UTF-8" standalone="no"?>
<svg xmlns:ffdec="https://www.free-decompiler.com/flash" xmlns:xlink="http://www.w3.org/1999/xlink" ffdec:objectType="shape" height="94.55px" width="114.8px" xmlns="http://www.w3.org/2000/svg">
  <g transform="matrix(1.0, 0.0, 0.0, 1.0, 50.0, 35.5)">
    <path d="M-36.7 11.1 L-38.35 7.2 Q-37.75 5.25 -36.4 2.6 -33.6 6.75 -32.55 8.9 L-31.7 10.85 -30.45 12.65 Q-29.6 13.45 -28.5 13.6 -27.3 13.85 -26.45 13.1 -26.0 12.65 -25.5 11.35 -23.7 6.3 -22.95 3.25 -21.9 -1.35 -22.4 -5.1 -22.6 -7.0 -23.55 -7.4 L-24.8 -7.45 Q-25.4 -7.25 -25.9 -6.7 L-27.25 -4.6 -30.1 -1.25 Q-31.9 0.65 -32.15 2.3 -32.8 1.9 -33.05 1.0 L-33.4 -0.75 Q-33.6 -2.15 -34.45 -4.15 L-35.75 -7.5 Q-36.85 -10.85 -36.25 -13.25 L-35.25 -14.05 -34.5 -15.45 Q-33.65 -17.2 -31.85 -19.3 -26.8 -24.95 -20.1 -29.3 L-16.95 -31.15 -16.3 -30.8 Q-15.6 -30.7 -14.85 -31.2 L-13.5 -32.35 Q-12.35 -33.3 -9.85 -33.8 -2.1 -35.15 7.7 -31.0 L7.95 -30.7 Q8.5 -30.0 9.85 -29.45 L16.8 -25.5 17.1 -25.05 18.75 -21.45 Q22.25 -13.05 21.5 -3.55 20.85 4.6 16.95 11.7 12.75 19.1 6.15 23.25 1.3 26.35 -4.6 27.35 -10.4 28.4 -16.1 27.2 -21.7 26.0 -26.65 22.65 -31.55 19.3 -34.75 14.5 L-36.7 11.1" fill="#8a8a8a" fill-rule="evenodd" stroke="none"/>
    <path d="M17.1 -25.05 L21.05 -20.5 22.0 -19.1 22.0 -19.3 22.9 -20.7 Q24.65 -18.75 25.8 -16.6 26.6 -15.15 27.1 -14.7 L27.5 -14.5 27.55 -14.4 Q27.15 -13.05 28.05 -12.2 L28.55 -11.8 28.8 -11.6 29.2 -10.65 29.9 -8.7 Q30.95 -3.55 30.8 1.05 L30.55 4.6 Q29.65 4.7 29.2 5.4 28.95 5.85 28.7 7.65 28.65 9.05 28.0 11.3 26.85 15.35 24.9 19.2 L22.9 21.95 19.05 25.45 18.25 26.15 Q8.7 31.1 -2.1 33.0 L-9.0 33.75 -9.9 33.75 -13.8 33.55 -15.75 33.15 -17.55 32.85 -17.85 33.0 Q-21.5 32.25 -24.3 30.9 -29.75 28.2 -34.95 21.55 L-33.8 21.25 -31.65 21.55 -30.55 22.25 -32.4 20.3 Q-34.75 17.5 -35.95 13.85 L-36.7 11.1 -34.75 14.5 Q-31.55 19.3 -26.65 22.65 -21.7 26.0 -16.1 27.2 -10.4 28.4 -4.6 27.35 1.3 26.35 6.15 23.25 12.75 19.1 16.95 11.7 20.85 4.6 21.5 -3.55 22.25 -13.05 18.75 -21.45 L17.1 -25.05 M-29.7 23.05 L-29.45 23.25 -29.3 23.3 -29.7 23.0 -29.7 23.05" fill="#707070" fill-rule="evenodd" stroke="none"/>
    <path d="M-30.7 -23.7 Q-25.35 -28.75 -17.55 -32.35 -13.95 -34.0 -11.05 -34.6 L-6.3 -35.4 -1.2 -35.45 4.1 -34.7 Q12.7 -32.2 20.1 -25.25 25.2 -20.65 28.3 -15.1 31.8 -9.05 32.5 -2.8 33.25 3.5 31.4 10.6 L30.8 12.5 30.45 13.35 28.4 17.55 28.3 17.7 Q25.55 23.1 21.05 27.3 16.7 31.3 10.95 33.7 5.35 36.05 -0.7 36.55 -12.6 37.55 -24.1 31.85 -28.25 29.9 -31.5 27.35 -35.9 23.55 -38.35 18.0 L-39.75 14.05 -40.1 10.2 Q-40.1 8.25 -39.75 6.25 -39.3 3.65 -38.2 1.45 L-37.35 0.3 -37.3 0.3 -37.0 0.75 -36.95 0.95 -34.0 5.6 Q-30.75 10.3 -29.25 11.35 L-27.85 12.25 -27.7 11.7 Q-26.45 7.5 -24.3 4.5 L-24.0 4.0 -23.85 3.25 Q-23.55 1.2 -24.0 -1.35 L-24.9 -5.35 -25.5 -4.5 -27.7 -1.1 -29.6 2.75 -30.4 5.25 -31.2 4.5 -31.0 4.7 -31.65 4.15 Q-33.6 2.2 -35.2 -0.5 L-35.95 -2.0 -36.5 -3.2 Q-37.45 -4.95 -38.2 -7.25 L-38.55 -8.7 Q-39.15 -11.9 -37.7 -14.7 L-37.4 -15.25 -37.3 -15.45 -37.25 -15.55 Q-34.75 -19.9 -30.7 -23.7 M-7.4 -29.95 Q-13.1 -29.05 -18.6 -26.1 -23.75 -23.3 -28.15 -18.95 -32.35 -14.8 -33.85 -10.75 L-33.9 -9.15 Q-32.8 -4.75 -31.15 -1.7 L-30.5 -3.25 -28.8 -6.05 -26.2 -9.85 Q-24.3 -12.3 -20.7 -15.5 L-19.8 -16.35 -19.2 -16.65 -19.1 -16.65 -18.6 -16.65 -18.45 -16.55 -18.25 -16.45 -17.2 -14.2 -15.65 -11.0 Q-13.5 -6.9 -10.6 -3.2 -8.45 -0.3 -6.15 1.45 -2.9 -3.2 3.0 -9.25 6.2 -12.5 8.75 -14.55 L10.45 -15.7 10.35 -15.6 11.55 -16.2 Q12.05 -16.45 13.65 -15.25 15.2 -14.1 16.95 -11.6 L20.1 -6.55 Q21.5 -4.0 22.8 1.3 23.65 4.7 23.0 8.75 L21.95 13.75 Q21.65 14.0 21.4 13.6 L19.0 10.65 Q16.85 8.1 14.25 6.0 L12.5 4.7 12.0 5.4 10.4 7.8 8.7 10.5 Q3.7 18.2 1.25 22.6 L-1.85 22.35 Q-3.55 21.85 -5.45 20.7 L-8.9 18.3 Q-10.5 17.0 -13.7 13.35 -16.95 9.6 -20.35 4.45 -22.8 8.2 -23.35 9.7 L-24.5 12.6 -25.9 17.1 -26.1 17.4 -26.1 17.5 -26.15 17.5 Q-26.65 17.55 -28.85 16.3 -31.05 15.0 -33.5 12.0 L-34.35 10.8 -34.55 10.65 -36.4 7.85 -36.4 7.75 Q-36.8 11.25 -35.0 15.15 -33.1 19.25 -28.85 22.75 -25.65 25.4 -21.2 27.55 -15.1 30.4 -8.55 31.25 -1.8 32.05 4.55 30.4 11.0 28.75 16.2 24.5 21.55 20.15 24.2 14.2 L24.85 12.95 26.05 10.05 26.2 9.4 27.15 5.4 Q27.65 2.2 27.5 -0.8 26.9 -9.55 20.3 -17.65 14.85 -24.3 7.5 -27.85 4.95 -29.0 2.4 -29.5 L-7.4 -29.95" fill="#000000" fill-rule="evenodd" stroke="none"/>
    <path d="M24.4 22.3 L22.25 22.2 Q21.15 21.7 21.35 20.2 21.45 19.3 22.25 18.0 L23.45 16.15 29.7 11.3 Q35.35 6.75 38.8 2.6 L39.9 2.15 40.45 2.25 40.75 2.55 41.5 3.25 Q43.95 6.95 47.6 9.95 51.85 13.45 57.1 15.4 L60.7 16.3 63.85 16.6 64.4 17.05 64.75 17.5 Q64.95 18.15 64.45 18.85 L64.25 19.1 Q63.55 20.25 61.15 20.65 55.3 21.5 49.2 18.6 44.65 16.45 39.25 11.65 34.7 16.05 29.4 19.7 26.4 21.7 24.4 22.3 M24.3 17.9 Q23.3 19.35 23.05 20.75 L24.5 20.45 24.5 19.8 24.85 18.45 25.4 17.3 26.25 15.5 Q24.9 16.95 24.3 17.9 M-30.95 26.35 L-28.25 26.6 -26.45 26.75 -24.75 27.3 Q-23.9 27.85 -23.9 28.7 -23.85 29.2 -24.4 29.85 L-25.0 30.15 Q-30.7 32.5 -37.8 38.35 L-41.7 41.85 -44.6 44.3 -45.5 44.85 Q-47.25 45.85 -48.4 45.65 -49.5 45.5 -49.95 44.6 -50.15 43.9 -49.65 42.7 -48.25 39.25 -44.4 35.35 -39.45 30.3 -33.65 27.3 -32.1 26.4 -30.95 26.35 M-15.85 58.95 Q-16.95 58.45 -17.1 56.25 -17.25 52.1 -14.75 46.7 -12.0 41.05 -7.85 36.75 -5.35 33.95 -2.9 32.6 L-2.35 32.85 -1.45 32.7 -0.5 32.25 -0.45 32.25 1.9 31.8 3.85 31.3 3.85 31.4 3.85 32.0 2.65 34.45 1.75 36.0 Q-0.7 38.7 -2.55 41.1 L-5.25 44.75 Q-9.4 50.75 -12.25 56.6 L-12.75 57.5 -14.05 58.7 -15.1 59.05 -15.85 58.95" fill="#000000" fill-rule="evenodd" stroke="none"/>
  </g>
</svg>
